# xmcd
#
# Track frame offsets: 
#        150
#        17405
#        35678
#        53333
#        67077
#        84432
#        106632
#        121861
#
# Disc length: 1805 seconds
#
# Revision: 0
# Processed by: cddbd v1.5.2PL0 Copyright (c) Steve Scherf et al.
# Submitted via: ExactAudioCopy v0.99pb3
#
DISCID=55070b08
DTITLE=Blackwater Mojo - Cold Holler
DYEAR=2011
DGENRE=Blues
TTITLE0=Never Seen The Devil
TTITLE1=Follow Me
TTITLE2=Crowbar
TTITLE3=Blown Away
TTITLE4=Cold Holler
TTITLE5=The Lonliest Road
TTITLE6=Lights Go Dim
TTITLE7=People Say
EXTD=
EXTT0=
EXTT1=
EXTT2=
EXTT3=
EXTT4=
EXTT5=
EXTT6=
EXTT7=
PLAYORDER=
